<?xml version="1.0" standalone="no"?>
<svg viewBox="0 0 200 200" xmlns="http://www.w3.org/2000/svg">
  <path fill="#F1C21B" d="M41.5,-54.8C56.3,-46.4,72.4,-37.6,76.1,-25C79.8,-12.4,71,3.9,61.8,16.3C52.6,28.8,42.9,37.3,32.6,46.9C22.2,56.6,11.1,67.4,-3.1,71.6C-17.3,75.9,-34.6,73.7,-44.1,63.7C-53.5,53.8,-55.2,36.1,-54.6,21.6C-54.1,7,-51.3,-4.4,-50.2,-18.9C-49.1,-33.4,-49.5,-51.1,-41.4,-61.7C-33.3,-72.2,-16.7,-75.7,-1.6,-73.4C13.4,-71.2,26.7,-63.2,41.5,-54.8Z" transform="translate(100 100)" />
</svg>
